@startuml gerenciar_perfil

title Diagrama de Estado - Caso de Uso: Gerenciar Perfil\nMusicáudio

skinparam backgroundColor white

skinparam nodesep 150

left to right direction

'cadastro e login
[*] --> Nao_Logado
Nao_Logado : Sem Json Web Token (JWT) ativo
state fork_state <<fork>>
Nao_Logado --> fork_state
fork_state -up-> Conta_Criada : cadastrar
fork_state --> Sessao_Ativa : login
Sessao_Ativa : JWT valido na sessao
Conta_Criada --> Nao_Logado
Sessao_Ativa --> Nao_Logado : logout\nremoção do token da sessão

'ações
Sessao_Ativa --> Perfil_Desativado
Perfil_Desativado : perfil soft deletado
Perfil_Desativado --> [*]

@enduml